<svg width="32" height="32" viewBox="0 0 32 32" fill="none" xmlns="http://www.w3.org/2000/svg">
<path fill-rule="evenodd" clip-rule="evenodd" d="M10.6667 8.88883C10.6667 7.47435 11.2286 6.11781 12.2288 5.11762C13.229 4.11743 14.5855 3.55553 16 3.55553C17.4145 3.55553 18.771 4.11743 19.7712 5.11762C20.7714 6.11781 21.3333 7.47435 21.3333 8.88883H10.6667ZM7.11117 8.88883C7.11117 6.53137 8.04767 4.27046 9.71465 2.60348C11.3816 0.936499 13.6425 0 16 0C18.3575 0 20.6184 0.936499 22.2854 2.60348C23.9523 4.27046 24.8888 6.53137 24.8888 8.88883H30.2221C30.4691 8.88882 30.7133 8.94026 30.9393 9.03987C31.1653 9.13948 31.368 9.28508 31.5346 9.46739C31.7012 9.6497 31.828 9.86472 31.9069 10.0987C31.9858 10.3328 32.015 10.5806 31.9928 10.8266L30.5084 27.15C30.3877 28.4751 29.7761 29.7073 28.7936 30.6046C27.8111 31.5019 26.5287 31.9995 25.1982 31.9998H6.80184C5.47127 31.9995 4.18886 31.5019 3.20637 30.6046C2.22388 29.7073 1.61229 28.4751 1.49165 27.15L0.00721476 10.8266C-0.0150114 10.5806 0.0142503 10.3328 0.0931343 10.0987C0.172018 9.86472 0.298794 9.6497 0.465381 9.46739C0.631968 9.28508 0.834711 9.13948 1.06069 9.03987C1.28666 8.94026 1.53091 8.88882 1.77787 8.88883H7.11117Z" fill="#1EC70F"/>
<circle cx="12" cy="27" r="2" fill="white"/>
<circle cx="20" cy="27" r="2" fill="white"/>
<path d="M23.0545 14C23.5767 14 24.0058 14.4248 23.9442 14.9434C23.8579 15.6699 23.6722 16.3827 23.391 17.0615C22.989 18.0321 22.3997 18.914 21.6569 19.6569C20.914 20.3997 20.0321 20.989 19.0615 21.391C18.0909 21.7931 17.0506 22 16 22C14.9494 22 13.9091 21.7931 12.9385 21.391C11.9679 20.989 11.086 20.3997 10.3431 19.6569C9.60028 18.914 9.011 18.0321 8.60896 17.0615C8.32782 16.3827 8.14209 15.6699 8.05581 14.9434C7.99423 14.4248 8.42334 14 8.94555 14C9.46776 14 9.88362 14.4258 9.96413 14.9418C10.0387 15.4199 10.1701 15.8886 10.3561 16.3378C10.6631 17.0789 11.1131 17.7524 11.6804 18.3196C12.2476 18.8869 12.9211 19.3369 13.6622 19.6439C14.4034 19.9509 15.1978 20.1089 16 20.1089C16.8022 20.1089 17.5966 19.9509 18.3378 19.6439C19.0789 19.3369 19.7524 18.8869 20.3196 18.3196C20.8869 17.7524 21.3369 17.0789 21.6439 16.3378C21.8299 15.8886 21.9613 15.4199 22.0359 14.9418C22.1164 14.4258 22.5322 14 23.0545 14Z" fill="white"/>
</svg>
