<svg width="14" height="14" viewBox="0 0 14 14" fill="none" xmlns="http://www.w3.org/2000/svg">
<path fill-rule="evenodd" clip-rule="evenodd" d="M9.93946 9.11412C10.6582 8.21557 11.088 7.0758 11.088 5.83565C11.088 2.93483 8.73646 0.583252 5.83565 0.583252C2.93483 0.583252 0.583252 2.93483 0.583252 5.83565C0.583252 8.73646 2.93483 11.088 5.83565 11.088C7.0758 11.088 8.21557 10.6582 9.11412 9.93946L12.4203 13.2457C12.6482 13.4736 13.0177 13.4736 13.2457 13.2457C13.4736 13.0177 13.4736 12.6482 13.2457 12.4203L9.93946 9.11412ZM5.83565 9.9267C3.57622 9.9267 1.74459 8.09507 1.74459 5.83565C1.74459 3.57622 3.57622 1.74459 5.83565 1.74459C8.09507 1.74459 9.9267 3.57622 9.9267 5.83565C9.9267 8.09507 8.09507 9.9267 5.83565 9.9267Z" fill="#0F0F0F"/>
</svg>
